<?xml version="1.0" encoding="UTF-8"?> <svg xmlns="http://www.w3.org/2000/svg" xmlns:xlink="http://www.w3.org/1999/xlink" width="2185px" height="316px" viewBox="0 0 2185 316" version="1.1"><title>CDL_ApprovedLogo-Inline-FullColour-Oct2021</title><g id="CDL_ApprovedLogo-Inline-FullColour-Oct2021" stroke="none" stroke-width="1" fill="none" fill-rule="evenodd"><path d="M862.257,158.292 C862.257,73.336 924.006,15.325 1002.32,15.325 C1046.25,15.325 1079.4,34.794 1103.02,64.22 L1083.13,77.054 C1065.73,53.028 1035.47,36.871 1002.32,36.871 C937.26,36.871 887.119,86.191 887.119,158.292 C887.119,229.562 937.26,279.712 1002.32,279.712 C1035.47,279.712 1065.73,263.547 1083.13,239.5 L1103.02,251.928 C1078.56,282.185 1046.25,301.268 1002.32,301.268 C924.006,301.268 862.257,243.247 862.257,158.292" id="Fill-1" fill="#FFFFFF"></path><path d="M2159.71,158.292 C2159.71,93.646 2118.28,41.419 2044.93,41.419 L1980.28,41.419 L1980.28,274.739 L2044.93,274.739 C2117.87,274.739 2159.71,222.937 2159.71,158.292 Z M1956.66,296.285 L1956.66,19.883 L2044.93,19.883 C2130.71,19.883 2184.59,82.453 2184.59,158.292 C2184.59,234.961 2130.71,296.285 2044.93,296.285 L1956.66,296.285 L1956.66,296.285 Z" id="Fill-2" fill="#FFFFFF"></path><polyline id="Fill-3" fill="#FFFFFF" points="1325.96 143.36 1174.71 143.36 1174.71 19.883 1151.08 19.883 1151.08 296.285 1174.71 296.285 1174.71 164.917 1325.96 164.917 1325.96 143.36"></polyline><polygon id="Fill-4" fill="#FFFFFF" points="1350 296.285 1374.04 296.285 1374.04 19.883 1350 19.883"></polygon><path d="M1821.16,180.252 C1862.18,178.591 1897.82,150.827 1897.82,100.676 C1897.82,50.13 1861.35,19.883 1813.7,19.883 L1710.51,19.883 L1710.51,296.285 L1734.13,296.285 L1734.13,41.419 L1811.63,41.419 C1848.09,41.419 1872.96,65.881 1872.96,100.676 C1872.96,135.49 1848.09,160.348 1811.63,160.348 L1758.17,160.348 L1758.17,181.903 L1795.06,181.903 L1872.55,296.285 L1901.13,296.285 L1821.16,180.252" id="Fill-5" fill="#FFFFFF"></path><polyline id="Fill-6" fill="#FFFFFF" points="1556.78 19.883 1527.36 19.883 1414.23 296.285 1441.58 296.285 1468.93 228.316 1583.29 228.316 1583.29 206.78 1476.8 206.78 1541.86 45.156 1607.32 206.78 1615.2 228.316 1642.56 296.285 1669.9 296.285 1556.78 19.883"></polyline><polyline id="Fill-7" fill="#FFFFFF" points="315.452 64.289 315.452 0.573 0 0.573 0 316 315.452 316 315.452 252.284 63.672 252.284 63.672 64.289 315.452 64.289"></polyline><polyline id="Fill-8" fill="#FFFFFF" points="382.358 252.284 382.358 316 697.81 316 697.81 0.573 382.358 0.583 382.358 64.289 634.143 64.289 634.143 252.284 382.358 252.284"></polyline><polygon id="Fill-9" fill="#FFFFFF" points="315.452 252.283 382.358 252.283 382.358 64.289 315.452 64.289"></polygon></g></svg> 